<?xml version="1.0" standalone="no"?>
<!DOCTYPE svg PUBLIC "-//W3C//DTD SVG 20010904//EN"
 "http://www.w3.org/TR/2001/REC-SVG-20010904/DTD/svg10.dtd">
<svg version="1.0" xmlns="http://www.w3.org/2000/svg"
 width="300.000000pt" height="300.000000pt" viewBox="0 0 300.000000 300.000000"
 preserveAspectRatio="xMidYMid meet">
<metadata>
Created by potrace 1.11, written by Peter Selinger 2001-2013
</metadata>
<g transform="translate(0.000000,300.000000) scale(0.100000,-0.100000)"
fill="#000000" stroke="none">
<path d="M35 2108 c1 -473 5 -599 21 -668 61 -268 221 -426 484 -476 136 -27
343 -16 458 22 223 76 360 252 398 515 4 24 7 293 8 597 l2 552 -153 0 c-84 0
-153 -3 -154 -7 0 -5 -1 -258 -3 -563 -2 -396 -6 -570 -15 -606 -27 -114 -112
-207 -214 -235 -97 -26 -254 -14 -334 26 -69 34 -129 114 -152 200 -21 82 -23
122 -23 648 l-1 537 -161 0 -162 0 1 -542z"/>
<path d="M1520 2644 c0 -4 51 -86 113 -183 62 -97 135 -210 161 -251 26 -41
92 -144 146 -229 l99 -155 -53 -75 c-29 -42 -82 -119 -118 -171 -35 -52 -139
-203 -230 -335 -90 -132 -168 -246 -172 -252 -6 -10 30 -13 166 -13 l173 0
204 305 c113 168 207 305 210 305 4 0 92 -137 196 -305 l190 -304 178 -1 c97
0 177 2 177 4 0 3 -36 60 -79 128 -198 308 -445 694 -461 719 -7 13 4 35 48
100 32 46 98 143 147 214 49 72 103 150 120 175 17 25 75 109 129 188 l97 142
-173 0 -173 -1 -191 -290 -192 -289 -137 217 c-76 120 -158 251 -183 291 l-45
72 -174 0 c-95 0 -173 -3 -173 -6z"/>
<path d="M39 662 c-1 -4 -2 -76 -3 -159 l-2 -153 1466 0 1465 0 0 160 1 159
-1463 0 c-805 0 -1464 -3 -1464 -7z"/>
</g>
</svg>
