<?xml version="1.0" standalone="no"?>
<!DOCTYPE svg PUBLIC "-//W3C//DTD SVG 20010904//EN"
 "http://www.w3.org/TR/2001/REC-SVG-20010904/DTD/svg10.dtd">
<svg version="1.0" xmlns="http://www.w3.org/2000/svg"
 width="195.000000pt" height="195.000000pt" viewBox="0 0 195.000000 195.000000"
 preserveAspectRatio="xMidYMid meet">
<metadata>
Created by potrace 1.14, written by Peter Selinger 2001-2017
</metadata>
<g transform="translate(0.000000,195.000000) scale(0.100000,-0.100000)"
fill="#000000" stroke="none">
<path d="M275 1478 c-3 -7 -4 -180 -3 -383 l3 -370 65 0 65 0 3 193 2 193 47
29 c57 36 114 40 141 10 14 -18 18 -50 22 -223 l5 -202 65 0 65 0 3 210 c2
129 -1 224 -8 247 -30 102 -176 129 -290 53 l-49 -33 -3 141 -3 142 -63 3
c-44 2 -64 -1 -67 -10z"/>
<path d="M1120 1264 c-19 -8 -49 -26 -66 -39 -18 -14 -35 -25 -38 -25 -3 0 -6
16 -6 35 l0 35 -65 0 -65 0 0 -275 0 -275 64 0 c49 0 65 4 70 16 3 9 6 95 6
193 0 171 1 178 23 198 53 48 120 58 153 22 17 -19 19 -41 22 -225 l3 -204 64
0 c48 0 64 4 69 16 3 9 6 95 6 193 0 171 1 178 23 198 53 48 120 58 153 22 17
-19 19 -41 22 -225 l3 -204 65 0 c59 0 64 2 70 25 3 13 4 117 3 229 -4 188 -6
207 -25 232 -32 44 -68 66 -117 71 -57 7 -103 -9 -162 -54 l-47 -36 -26 33
c-45 57 -129 76 -202 44z"/>
</g>
</svg>
